<?xml version="1.0" standalone="no"?>
<!DOCTYPE svg PUBLIC "-//W3C//DTD SVG 20010904//EN"
 "http://www.w3.org/TR/2001/REC-SVG-20010904/DTD/svg10.dtd">
<svg version="1.0" xmlns="http://www.w3.org/2000/svg"
 width="316.000000pt" height="316.000000pt" viewBox="0 0 316.000000 316.000000"
 preserveAspectRatio="xMidYMid meet">
<metadata>
Created by potrace 1.14, written by Peter Selinger 2001-2017
</metadata>
<g transform="translate(0.000000,316.000000) scale(0.100000,-0.100000)"
fill="#000000" stroke="none">
<path d="M1395 2936 c-86 -16 -251 -66 -334 -99 -187 -76 -355 -238 -437 -423
-38 -87 -71 -249 -74 -366 0 -5 -8 -8 -18 -8 -28 0 -60 -36 -73 -83 -7 -23
-21 -49 -32 -58 -56 -46 -50 -421 8 -467 12 -10 29 -31 38 -47 8 -17 32 -46
52 -65 36 -34 37 -35 128 -37 53 -1 109 -8 132 -16 40 -15 40 -16 81 -139 54
-160 98 -234 200 -336 l83 -82 -42 -21 c-23 -12 -51 -29 -62 -39 -12 -11 -69
-28 -152 -44 -72 -14 -153 -33 -180 -42 -50 -17 -103 -50 -103 -63 0 -12 253
-135 338 -165 135 -48 296 -82 473 -100 l57 -6 -8 35 c-7 29 -5 35 9 36 10 0
11 2 4 6 -27 10 -11 23 28 23 22 0 38 -4 35 -8 -3 -5 1 -9 9 -9 8 0 12 4 10 7
-4 6 97 22 101 16 1 0 -6 -17 -14 -36 -25 -57 -23 -72 7 -66 14 3 58 8 96 11
105 10 245 41 364 80 97 33 320 135 365 168 18 13 17 15 -10 34 -41 29 -107
50 -257 79 -92 19 -140 33 -157 48 -14 11 -44 29 -67 40 l-42 19 42 34 c78 65
144 147 190 239 25 50 87 225 87 248 0 6 26 21 58 33 43 16 71 20 113 16 32
-3 73 0 93 7 35 11 106 82 106 106 0 7 12 21 26 31 35 26 54 110 56 248 1 117
-19 218 -46 228 -7 3 -17 23 -20 44 -11 59 -31 82 -76 89 -22 4 -40 9 -40 13
-9 178 -37 299 -102 431 -42 88 -63 118 -127 181 -102 102 -199 157 -375 213
-78 25 -161 50 -186 56 -76 17 -277 21 -355 6z"/>
<path d="M1536 287 c3 -10 9 -15 12 -12 3 3 0 11 -7 18 -10 9 -11 8 -5 -6z"/>
<path d="M1530 256 c0 -2 8 -10 18 -17 15 -13 16 -12 3 4 -13 16 -21 21 -21
13z"/>
</g>
</svg>
